<svg width="139" height="111" viewBox="0 0 139 111" fill="none" xmlns="http://www.w3.org/2000/svg">
<path d="M131.049 89.9775L9.04861 106.87C6.64429 107.203 4.5 105.335 4.5 102.908V70.9856C4.5 64.3836 7.60467 58.1659 12.882 54.1991L78.3525 4.98634C78.7798 4.66514 79.2641 4.43514 79.7971 4.39369C82.2887 4.19993 90.8404 4.46452 108.5 13.4996C126.372 22.6434 132.497 30.7507 134.055 33.2265C134.371 33.7277 134.5 34.3069 134.5 34.8991V86.0153C134.5 88.0125 133.027 89.7036 131.049 89.9775Z" stroke="#D49860" stroke-width="8" stroke-linecap="round"/>
<path d="M134 37L9.5 62" stroke="#D49860" stroke-width="8" stroke-linecap="round"/>
<path d="M134 59L78.5 69" stroke="#D49860" stroke-width="8" stroke-linecap="round"/>
<path d="M32 91L6.5 95" stroke="#D49860" stroke-width="8" stroke-linecap="round"/>
<path d="M64 60V54C64 49.5817 60.4183 46 56 46C51.5817 46 48 49.5817 48 54V60C48 64.4183 51.5817 68 56 68C60.4183 68 64 64.4183 64 60Z" fill="white"/>
<path d="M48 54V60C48 64.4183 51.5817 68 56 68V68C60.4183 68 64 64.4183 64 60V50" stroke="#D49860" stroke-width="8" stroke-linecap="round"/>
<path d="M103 65V45C103 40.5817 99.4183 37 95 37C90.5817 37 87 40.5817 87 45V65C87 69.4183 90.5817 73 95 73C99.4183 73 103 69.4183 103 65Z" fill="white"/>
<path d="M87 46V67.5C87 71.9183 90.5817 75.5 95 75.5V75.5C99.4183 75.5 103 71.9183 103 67.5V43" stroke="#D49860" stroke-width="8" stroke-linecap="round"/>
<path d="M123 39C116.489 32.7826 96.5745 18.8783 69 13" stroke="#D49860" stroke-width="8" stroke-linecap="round"/>
</svg>
