<svg width="33" height="33" viewBox="0 0 33 33" fill="none" xmlns="http://www.w3.org/2000/svg">
<path fill-rule="evenodd" clip-rule="evenodd" d="M4.54819 7.37668C3.76714 6.59563 3.76714 5.3293 4.54819 4.54825C5.32924 3.7672 6.59557 3.7672 7.37662 4.54825L16.0439 13.2155L24.7111 4.54825C25.4922 3.7672 26.7585 3.7672 27.5396 4.54825C28.3206 5.3293 28.3206 6.59563 27.5396 7.37668L18.8723 16.0439L27.5396 24.7112C28.3206 25.4922 28.3206 26.7586 27.5396 27.5396C26.7585 28.3207 25.4922 28.3207 24.7111 27.5396L16.0439 18.8724L7.37663 27.5396C6.59558 28.3207 5.32925 28.3207 4.5482 27.5396C3.76715 26.7586 3.76715 25.4922 4.5482 24.7112L13.2155 16.0439L4.54819 7.37668Z" fill="#D49860"/>
</svg>
