<svg width="109" height="170" viewBox="0 0 109 170" fill="none" xmlns="http://www.w3.org/2000/svg">
<path d="M42.1097 56.3812L37.5071 11.4178C37.0029 6.49213 32.1906 3.20267 27.418 4.5214L4 10.9922" stroke="#D49860" stroke-width="8" stroke-linecap="round"/>
<path d="M17.2742 54.2401C17.2742 54.2401 24.4639 59.0573 59.6559 54.2401C94.8478 49.4229 98.6319 54.2401 98.6319 54.2401" stroke="#D49860" stroke-width="8" stroke-linecap="round"/>
<path d="M104.909 91.4934C104.909 116.715 84.0519 138.021 58.3812 138.021C32.7105 138.021 11.8538 116.715 11.8538 91.4934C11.8538 78.3989 15.9877 60.4568 20.2638 45.4904C22.3836 38.0713 24.5047 31.4955 26.0959 26.775C26.7726 24.7674 27.3528 23.0974 27.7953 21.8433H88.967C89.4095 23.0974 89.9897 24.7674 90.6664 26.775C92.2576 31.4955 94.3788 38.0713 96.4985 45.4904C100.775 60.4568 104.909 78.3989 104.909 91.4934Z" stroke="#D49860" stroke-width="8"/>
<path d="M58.3811 138.595V165.144" stroke="#D49860" stroke-width="8"/>
<rect x="44.4302" y="97.814" width="19.4047" height="19.4047" rx="4" transform="rotate(30 44.4302 97.814)" stroke="#D49860" stroke-width="8"/>
<rect x="86.3056" y="86.972" width="19.4047" height="19.4047" rx="4" transform="rotate(75 86.3056 86.972)" stroke="#D49860" stroke-width="8"/>
<path d="M27.551 166H89.2116" stroke="#D49860" stroke-width="8" stroke-linecap="round"/>
</svg>
