<svg width="155" height="111" viewBox="0 0 155 111" fill="none" xmlns="http://www.w3.org/2000/svg">
<circle cx="35" cy="12" r="12" fill="#D49860"/>
<circle cx="126" cy="12" r="12" fill="#D49860"/>
<path d="M41.4167 54C44.379 47.007 44.4264 40.3535 43.9502 36.0187C43.6174 32.9886 40.9298 31 37.8815 31H29.6589C26.3581 31 23.508 33.313 23.2289 36.602C22.8137 41.4957 22.8516 48.6359 25.5833 54" stroke="#D49860" stroke-width="8" stroke-linecap="round"/>
<path d="M6.5 55C6.5 55 13.5 49 17.5 43C21.5 37 23.5 31 26.5 31C29.5 31 43 31 43 31C43 31 63 29.9995 81.5 16.9995" stroke="#D49860" stroke-width="8" stroke-linecap="round"/>
<path d="M26 53C26 53 19.1599 57.0424 13.5107 72.3136C9.40251 83.4192 5.98089 96.1877 4.41994 102.327C3.94296 104.203 5.36645 106 7.30213 106H58.0712C59.8826 106 61.2718 104.417 60.9825 102.629C60.0218 96.6901 57.6502 83.8926 53.4893 72.3136C47.8401 56.5932 41 53 41 53" stroke="#D49860" stroke-width="8"/>
<path d="M111 27L119.286 62H132.714L139 27" stroke="#D49860" stroke-width="8" stroke-linecap="round"/>
<path d="M130 62L148 104.5" stroke="#D49860" stroke-width="8" stroke-linecap="round"/>
<path d="M112 30L120.5 55H129.5L138 30" stroke="#D49860" stroke-width="8" stroke-linecap="round"/>
<path d="M107 107V84L123 62" stroke="#D49860" stroke-width="8" stroke-linecap="round"/>
<path d="M112 27C112 27 94 26 83 17" stroke="#D49860" stroke-width="8" stroke-linecap="round"/>
<path fill-rule="evenodd" clip-rule="evenodd" d="M120.583 27.1349L122.236 28.3205C122.683 27.5321 123.529 27.0001 124.5 27.0001C125.471 27.0001 126.317 27.5321 126.764 28.3205L128.417 27.1349C129.079 26.6605 130 27.1334 130 27.9476V31.0526C130 31.8668 129.079 32.3397 128.417 31.8653L126.84 30.7345C126.419 31.6021 125.529 32.2001 124.5 32.2001C123.471 32.2001 122.581 31.602 122.16 30.7344L120.583 31.8652C119.921 32.3397 119 31.8668 119 31.0526V27.9476C119 27.1334 119.921 26.6604 120.583 27.1349Z" fill="#D49860"/>
<circle cx="125" cy="37" r="2" fill="#D49860"/>
<circle cx="125" cy="44" r="2" fill="#D49860"/>
<path d="M141 30C143.519 33.0612 149.044 42.3469 151 55" stroke="#D49860" stroke-width="8" stroke-linecap="round"/>
<path d="M8 90.9838C12.4401 91.1528 23.4136 90.0714 31.7864 84.3942C42.2524 77.2978 32.2621 87.9425 57 90.9838" stroke="#D49860" stroke-width="8" stroke-linecap="round"/>
</svg>
