<svg width="297" height="298" viewBox="0 0 297 298" fill="none" xmlns="http://www.w3.org/2000/svg">
<path d="M103.851 137.7C105.719 137.7 107.212 136.58 107.587 134.712C107.96 132.844 106.467 130.603 104.599 130.231L96.3816 128.738C94.5136 128.365 92.273 129.858 91.9005 131.726C91.5279 133.594 93.0208 135.835 94.8888 136.208L103.106 137.7H103.851V137.7Z" fill="#D49860"/>
<path d="M169.587 189.244L161.37 187.751C159.502 187.378 157.261 188.871 156.889 190.739C156.516 192.607 158.009 194.848 159.877 195.22L168.094 196.713H168.842C170.71 196.713 172.202 195.593 172.578 193.725C172.948 191.487 171.827 189.619 169.587 189.244V189.244Z" fill="#D49860"/>
<path d="M39.2356 184.762L47.4525 186.254H48.2003C50.0683 186.254 51.5612 185.134 51.9363 183.266C52.3089 181.398 50.816 179.157 48.948 178.785L40.731 177.292C38.863 176.919 36.6224 178.412 36.2498 180.28C35.8747 182.148 36.995 184.389 39.2356 184.762Z" fill="#D49860"/>
<path d="M67.995 238.919C68.3675 237.051 66.8747 234.81 65.0066 234.437L56.7897 232.945C54.9216 232.572 52.681 234.065 52.3085 235.933C51.9359 237.801 53.4288 240.042 55.2968 240.414L63.5138 241.907H64.2615C66.1269 241.907 67.6198 240.787 67.995 238.919V238.919Z" fill="#D49860"/>
<path d="M69.489 230.328C70.6093 230.328 71.7296 229.956 72.4773 228.836L77.7061 222.114C78.8264 220.621 78.8264 218.005 76.9584 216.885C75.4655 215.765 72.8498 215.765 71.7296 217.633L66.5007 224.354C65.3804 225.847 65.3804 228.463 67.2484 229.583C67.9962 229.956 68.7413 230.328 69.489 230.328H69.489Z" fill="#D49860"/>
<path d="M102.73 255.352L94.5134 253.86C92.6454 253.487 90.4048 254.98 90.0322 256.848C89.6597 258.716 91.1525 260.957 93.0205 261.329L101.238 262.822H101.985C103.853 262.822 105.346 261.702 105.721 259.834C106.091 257.593 104.971 255.728 102.73 255.352V255.352Z" fill="#D49860"/>
<path d="M134.478 223.605L126.261 222.112C124.393 221.74 122.152 223.233 121.78 225.101C121.407 226.969 122.9 229.209 124.768 229.582L132.985 231.075H133.733C135.601 231.075 137.094 229.954 137.469 228.086C137.839 225.846 136.718 223.978 134.478 223.605V223.605Z" fill="#D49860"/>
<path d="M159.502 201.569C158.009 200.076 155.766 200.448 154.273 201.941C152.78 203.434 153.153 205.677 154.646 207.17L160.995 212.772C161.743 213.519 162.488 213.892 163.611 213.892C164.731 213.892 165.479 213.519 166.227 212.772C167.719 211.279 167.347 209.036 165.854 207.543L159.502 201.569Z" fill="#D49860"/>
<path d="M148.671 162.351C149.418 162.724 150.164 163.099 150.911 163.099C152.032 163.099 153.152 162.726 153.9 161.606L159.129 154.884C160.249 153.392 160.249 150.776 158.381 149.656C156.888 148.535 154.272 148.535 153.152 150.403L147.923 157.125C146.805 158.615 147.178 161.228 148.671 162.351H148.671Z" fill="#D49860"/>
<path d="M142.321 236.678C140.081 236.678 138.585 238.546 138.96 240.786L139.708 249.376C139.708 251.244 141.576 252.737 143.444 252.737H143.817C146.057 252.737 147.553 250.869 147.178 248.628L146.057 240.039C146.057 238.173 144.189 236.678 142.321 236.678V236.678Z" fill="#D49860"/>
<path d="M101.236 249.003C101.609 249.003 101.609 249.003 101.236 249.003C103.477 249.003 104.972 247.135 104.972 244.895L104.597 236.305C104.597 234.064 102.729 232.569 100.489 232.944C98.248 232.944 96.7526 234.812 97.1278 237.052L97.8755 245.642C97.8729 247.51 99.3683 249.003 101.236 249.003V249.003Z" fill="#D49860"/>
<path d="M136.345 158.243C134.105 158.243 132.609 160.111 132.984 162.352L133.732 170.941C133.732 172.809 135.6 174.302 137.468 174.302H137.841C140.081 174.302 141.577 172.434 141.202 170.194L140.079 161.604C140.079 159.736 138.211 158.243 136.345 158.243H136.345Z" fill="#D49860"/>
<path d="M104.224 160.484C106.465 160.484 107.96 158.616 107.96 156.375L107.213 147.785C107.213 145.545 105.345 144.049 103.104 144.425C100.863 144.425 99.368 146.293 99.7432 148.533L100.491 157.123C100.488 158.988 102.356 160.484 104.224 160.484Z" fill="#D49860"/>
<path d="M40.7295 189.617C38.4889 189.617 36.9935 191.485 37.3687 193.726L38.1164 202.315C38.1164 204.183 39.9844 205.676 41.8524 205.676H42.225C44.4656 205.676 45.9611 203.808 45.5859 201.568L44.8382 192.978C44.4656 190.737 42.5976 189.242 40.7295 189.617V189.617Z" fill="#D49860"/>
<path d="M56.4165 200.075C56.7891 200.075 57.5368 200.075 57.9094 199.702L65.3787 195.966C67.2467 195.218 67.9944 192.978 67.2467 191.11C66.499 189.242 64.2584 188.494 62.3904 189.242L54.9211 192.978C53.0531 193.726 52.3053 195.966 53.0531 197.834C53.8008 199.327 54.9211 200.075 56.4166 200.075H56.4165Z" fill="#D49860"/>
<path d="M141.201 189.617L133.731 193.353C131.863 194.101 131.116 196.341 131.863 198.209C132.611 199.702 133.731 200.45 135.224 200.45C135.597 200.45 136.345 200.45 136.717 200.077L144.186 196.341C146.055 195.593 146.802 193.353 146.055 191.485C145.309 189.242 143.069 188.497 141.201 189.617L141.201 189.617Z" fill="#D49860"/>
<path d="M132.984 145.171C132.611 147.039 134.104 149.279 135.972 149.652L144.189 151.145H144.937C146.805 151.145 148.298 150.024 148.673 148.156C149.045 146.288 147.553 144.048 145.685 143.675L137.468 142.182C135.224 141.81 133.359 143.303 132.984 145.171V145.171Z" fill="#D49860"/>
<path d="M286.221 40.5356L287.124 39.6987L287.155 39.5649C290.671 35.6947 292.731 30.9232 292.734 25.6548V25.6525C292.734 19.8778 290.912 14.7052 286.707 10.4997C282.471 6.2608 276.904 4.4707 271.552 4.4707H271.386L271.221 4.48444C265.947 4.92261 260.443 7.1235 256.639 11.3816L162.05 113.418C144.214 100.3 124.028 94.1084 103.476 94.1084C75.8326 94.1084 48.5905 105.785 29.1442 127.952C-4.32723 165.331 -4.30441 221.751 28.7523 259.479C47.0425 280.489 72.7435 292.56 100.376 293.34C127.991 294.118 154.453 283.613 173.909 264.157C208.484 229.582 212.815 174.462 184.155 135.152L286.221 40.5356Z" stroke="#D49860" stroke-width="8"/>
<path d="M178.924 166.459C178.924 165.712 179.297 164.967 178.924 164.591C178.552 159.363 175.563 148.905 163.61 136.579C151.657 124.254 141.199 121.265 135.97 120.52H135.598C135.225 120.147 134.85 119.4 134.105 119.027C129.996 115.666 120.659 110.437 103.477 110.437C86.2945 110.437 76.957 115.666 72.8485 119.027C70.2328 120.895 69.4876 124.256 70.6079 127.244L95.2595 186.63L37.742 156.377C35.1263 154.884 31.3929 155.629 29.5251 157.87C26.1642 161.606 20.1876 170.568 18.6949 187.75C17.5746 204.933 22.0558 214.642 25.0441 219.124L25.4166 219.496C25.4166 220.244 25.0441 220.989 25.0441 221.364C25.4166 226.593 27.6598 237.051 38.8629 249.749C50.4407 262.823 60.5258 266.184 65.7548 267.304H66.1273C66.4999 268.052 66.8751 268.424 67.2476 268.797C70.9837 272.158 80.3214 278.134 97.5004 278.882H101.236C116.175 278.882 124.768 274.401 128.501 271.785C128.501 271.785 128.501 271.412 128.874 271.412C129.246 271.412 129.994 271.785 130.367 271.785H130.739C135.968 271.412 146.426 268.796 158.752 257.218C171.45 245.641 174.811 235.183 175.558 229.954V229.581C176.306 229.208 176.679 228.833 177.051 228.088C180.412 223.98 186.016 215.014 186.389 197.835C187.514 180.281 182.285 170.568 178.924 166.459ZM171.454 164.219C171.082 164.219 171.082 164.219 171.454 164.219L110.2 187.75L135.972 127.989C139.708 128.737 148.298 131.35 158.384 141.808C168.469 151.893 170.708 160.11 171.454 164.219ZM103.851 117.907C118.044 117.907 125.887 122.015 129.247 124.256C129.247 124.256 129.247 124.628 128.875 124.628L103.103 185.134L78.0784 124.628C81.0667 122.388 88.9116 117.907 103.851 117.907ZM26.5366 187.751C27.6569 172.812 32.5132 165.34 35.1264 162.727L93.3916 193.355L31.0172 213.895C28.7766 210.162 25.4164 202.317 26.5366 187.751ZM44.8367 244.523C35.4992 233.693 33.2589 225.476 32.8834 221.367H33.256L95.2574 200.824L66.4974 259.465C62.3914 258.342 54.1742 255.353 44.8367 244.523ZM98.2484 271.04C84.0548 270.293 76.5854 265.812 73.224 263.571C73.224 263.571 73.224 263.199 73.5965 263.199L102.357 204.186L124.02 265.812C120.656 268.052 112.443 271.788 98.2484 271.04ZM154.273 251.245C143.815 260.955 135.225 263.198 131.49 263.571V263.198L109.454 201.572L168.84 229.212C167.719 233.318 164.731 241.535 154.273 251.245ZM172.573 222.485C172.201 222.112 172.201 222.485 172.573 222.485L112.812 195.22L174.066 172.064C176.307 175.425 180.043 183.27 179.667 197.461C179.297 211.654 174.817 219.123 172.573 222.485Z" fill="#D49860"/>
</svg>
