<svg width="65" height="174" viewBox="0 0 65 174" fill="none" xmlns="http://www.w3.org/2000/svg">
<path d="M8 85H57C59.2091 85 61 86.7909 61 89V170H4L4 89C4 86.7909 5.79086 85 8 85Z" stroke="#D49860" stroke-width="8"/>
<path d="M16 63H49C51.2091 63 53 64.7909 53 67V85H12V67C12 64.7909 13.7909 63 16 63Z" stroke="#D49860" stroke-width="8"/>
<path d="M45 25.5415V63H20V16.7015C20 13.3426 23.8897 11.4794 26.507 13.5847L32.9317 18.7523C35.8162 21.0725 39.2655 22.5846 42.9264 23.1337C44.1183 23.3125 45 24.3363 45 25.5415Z" stroke="#D49860" stroke-width="8"/>
</svg>
