<svg width="122" height="155" viewBox="0 0 122 155" fill="none" xmlns="http://www.w3.org/2000/svg">
<path d="M48.7884 98.9999C43.6597 136.511 4.5 140 4.5 140C4.5 140 110.5 160.5 110.5 80.4999C110.5 0.499947 24 4.49985 24 4.49985C24 4.49985 50 28.9999 50 80.4999C50 83.9826 43.2217 91.3145 43 94.4999M48.7884 98.9999C49.1588 96.2904 42.7941 97.4583 43 94.4999M48.7884 98.9999L43 94.4999" stroke="#D49860" stroke-width="8" stroke-linecap="round" stroke-linejoin="round"/>
<path d="M67 63.5C67 63.5 71 64.5 74.5 63.5C78 62.5 80.5 60 80.5 60" stroke="#D49860" stroke-width="8" stroke-linecap="round" stroke-linejoin="round"/>
<path fill-rule="evenodd" clip-rule="evenodd" d="M83.0332 132.414C79.4281 130.344 77 126.455 77 122C77 115.373 82.3726 110 89 110C93.4554 110 97.3436 112.428 99.4137 116.033C99.773 116.011 100.135 116 100.5 116C110.165 116 118 123.835 118 133.5C118 143.165 110.165 151 100.5 151C90.835 151 83 143.165 83 133.5C83 133.135 83.0112 132.773 83.0332 132.414Z" fill="white"/>
<path d="M83.0332 132.414L87.0257 132.658C87.1186 131.141 86.3433 129.702 85.025 128.945L83.0332 132.414ZM99.4137 116.033L95.9449 118.025C96.7019 119.343 98.1408 120.119 99.6582 120.026L99.4137 116.033ZM85.025 128.945C82.6112 127.559 81 124.965 81 122H73C73 127.946 76.245 133.128 81.0413 135.883L85.025 128.945ZM81 122C81 117.582 84.5817 114 89 114V106C80.1634 106 73 113.163 73 122H81ZM89 114C91.9652 114 94.5589 115.611 95.9449 118.025L102.883 114.041C100.128 109.245 94.9456 106 89 106V114ZM99.6582 120.026C99.9362 120.009 100.217 120 100.5 120V112C100.054 112 99.6098 112.014 99.1692 112.041L99.6582 120.026ZM100.5 120C107.956 120 114 126.044 114 133.5H122C122 121.626 112.374 112 100.5 112V120ZM114 133.5C114 140.956 107.956 147 100.5 147V155C112.374 155 122 145.374 122 133.5H114ZM100.5 147C93.0442 147 87 140.956 87 133.5H79C79 145.374 88.6259 155 100.5 155V147ZM87 133.5C87 133.217 87.0087 132.936 87.0257 132.658L79.0406 132.169C79.0137 132.61 79 133.054 79 133.5H87Z" fill="#D49860"/>
<circle cx="79" cy="139" r="12" fill="white" stroke="#D49860" stroke-width="8" stroke-linecap="round" stroke-linejoin="round"/>
</svg>
