<svg width="182" height="197" viewBox="0 0 182 197" fill="none" xmlns="http://www.w3.org/2000/svg">
<circle cx="102" cy="115" r="64" stroke="#D49860" stroke-width="8"/>
<path d="M101 4L101 175" stroke="#D49860" stroke-width="8" stroke-linecap="round"/>
<path d="M162 115L41 115" stroke="#D49860" stroke-width="8" stroke-linecap="round"/>
<path d="M74 58C74 58 66 80.8 66 115C66 149.2 74 172 74 172" stroke="#D49860" stroke-width="8" stroke-linecap="round"/>
<path d="M129 58C129 58 137 80.8 137 115C137 149.2 129 172 129 172" stroke="#D49860" stroke-width="8" stroke-linecap="round"/>
<path d="M45 92C45 92 67.8 84 102 84C136.2 84 159 92 159 92" stroke="#D49860" stroke-width="8" stroke-linecap="round"/>
<path d="M159 139C159 139 136.2 147 102 147C67.8 147 45 139 45 139" stroke="#D49860" stroke-width="8" stroke-linecap="round"/>
<path d="M16.2654 39.1466C13.5268 37.6318 13.5102 33.7006 16.2359 32.1627L18.3649 30.9614C26.1426 26.573 32.5731 20.1424 36.9615 12.3648L38.1628 10.2357C39.7007 7.51003 43.632 7.52668 45.1468 10.2653L45.8973 11.6222C50.3562 19.6837 56.9974 26.3249 65.0589 30.7838L66.4158 31.5344C69.1545 33.0492 69.1711 36.9804 66.4454 38.5184L64.3164 39.7196C56.5387 44.108 50.1082 50.5386 45.7197 58.3162L44.5185 60.4453C42.9805 63.171 39.0493 63.1543 37.5345 60.4157L36.784 59.0587C32.325 50.9973 25.6839 44.3561 17.6224 39.8972L16.2654 39.1466Z" fill="white"/>
<path fill-rule="evenodd" clip-rule="evenodd" d="M25.9846 35.6588C31.8959 39.6834 36.9977 44.7852 41.0224 50.6965C45.1709 44.4966 50.4968 39.1707 56.6967 35.0222C50.7854 30.9976 45.6835 25.8958 41.6589 19.9845C37.5104 26.1844 32.1845 31.5103 25.9846 35.6588ZM16.2359 32.1627C13.5102 33.7006 13.5268 37.6318 16.2654 39.1466L17.6224 39.8972C25.6839 44.3561 32.325 50.9973 36.784 59.0587L37.5345 60.4157C39.0493 63.1543 42.9805 63.171 44.5185 60.4453L45.7197 58.3162C50.1082 50.5386 56.5387 44.108 64.3164 39.7196L66.4454 38.5184C69.1711 36.9804 69.1545 33.0492 66.4158 31.5344L65.0589 30.7838C56.9974 26.3249 50.3562 19.6837 45.8973 11.6222L45.1468 10.2653C43.632 7.52668 39.7007 7.51003 38.1628 10.2357L36.9615 12.3648C32.5731 20.1424 26.1426 26.573 18.3649 30.9614L16.2359 32.1627Z" fill="#D49860"/>
<path fill-rule="evenodd" clip-rule="evenodd" d="M13.0283 73.7706C14.9333 75.4374 16.7252 77.2293 18.3921 79.1344C20.1673 77.0861 22.0864 75.167 24.1347 73.3918C22.2296 71.7249 20.4377 69.933 18.7709 68.028C16.9956 70.0763 15.0766 71.9954 13.0283 73.7706ZM4.19962 70.5823C2.09145 72.1891 2.10079 75.3648 4.21838 76.9592L4.96716 77.5229C8.62773 80.279 11.8836 83.5349 14.6397 87.1955L15.2035 87.9443C16.7978 90.0618 19.9735 90.0712 21.5803 87.963L22.4948 86.7631C25.1553 83.2724 28.2727 80.155 31.7634 77.4946L32.9633 76.58C35.0715 74.9733 35.0621 71.7975 32.9445 70.2032L32.1958 69.6394C28.5352 66.8833 25.2793 63.6274 22.5232 59.9669L21.9595 59.2181C20.3651 57.1005 17.1894 57.0912 15.5826 59.1993L14.6681 60.3992C12.0076 63.8899 8.89018 67.0073 5.3995 69.6678L4.19962 70.5823Z" fill="#D49860"/>
<path fill-rule="evenodd" clip-rule="evenodd" d="M34.4679 180.883C34.4838 180.898 34.4997 180.914 34.5155 180.93C34.6171 180.828 34.7192 180.725 34.8218 180.624C34.8059 180.608 34.7901 180.592 34.7742 180.576C34.6726 180.679 34.5705 180.781 34.4679 180.883ZM24.9957 178.526C23.4375 179.714 23.4444 182.061 25.0096 183.239C27.7152 185.276 30.1217 187.683 32.1588 190.389C33.3372 191.954 35.6845 191.961 36.8721 190.402L36.9818 190.258C39.0394 187.559 41.4504 185.148 44.1501 183.09L44.294 182.98C45.8522 181.793 45.8453 179.446 44.2802 178.267C41.5746 176.23 39.168 173.824 37.131 171.118C35.9525 169.553 33.6053 169.546 32.4177 171.104L32.308 171.248C30.2504 173.948 27.8393 176.359 25.1397 178.416L24.9957 178.526Z" fill="#D49860"/>
<path fill-rule="evenodd" clip-rule="evenodd" d="M161.529 184.518C160.259 185.486 160.265 187.398 161.54 188.358C163.744 190.018 165.705 191.978 167.365 194.183C168.325 195.458 170.237 195.464 171.205 194.194L171.294 194.077C172.97 191.877 174.935 189.913 177.134 188.237L177.251 188.147C178.521 187.18 178.515 185.268 177.24 184.307C175.036 182.648 173.075 180.687 171.415 178.483C170.455 177.208 168.543 177.202 167.576 178.472L167.486 178.589C165.81 180.788 163.846 182.753 161.646 184.429L161.529 184.518Z" fill="#D49860"/>
<path d="M114.218 177.737C112.101 176.143 112.091 172.967 114.2 171.36L118.111 168.379C121.601 165.719 124.719 162.601 127.379 159.111L130.36 155.2C131.967 153.092 135.143 153.101 136.737 155.219L139.308 158.634C142.065 162.295 145.32 165.551 148.981 168.307L152.397 170.878C154.514 172.473 154.524 175.648 152.415 177.255L148.504 180.236C145.014 182.896 141.896 186.014 139.236 189.505L136.255 193.416C134.648 195.524 131.473 195.514 129.878 193.397L127.307 189.981C124.55 186.321 121.295 183.065 117.634 180.309L114.218 177.737Z" fill="white"/>
<path fill-rule="evenodd" clip-rule="evenodd" d="M123.24 174.527C126.913 177.395 130.221 180.702 133.088 184.375C136.064 180.521 139.521 177.064 143.375 174.088C139.702 171.221 136.394 167.913 133.527 164.241C130.551 168.095 127.094 171.551 123.24 174.527ZM114.2 171.36C112.091 172.967 112.101 176.143 114.218 177.737L117.634 180.309C121.295 183.065 124.55 186.321 127.307 189.981L129.878 193.397C131.473 195.514 134.648 195.524 136.255 193.416L139.236 189.505C141.896 186.014 145.014 182.896 148.504 180.236L152.415 177.255C154.524 175.648 154.514 172.473 152.397 170.878L148.981 168.307C145.32 165.551 142.065 162.295 139.308 158.634L136.737 155.219C135.143 153.101 131.967 153.092 130.36 155.2L127.379 159.111C124.719 162.601 121.601 165.719 118.111 168.379L114.2 171.36Z" fill="#D49860"/>
<path fill-rule="evenodd" clip-rule="evenodd" d="M165.737 55.7671C166.331 56.3324 166.911 56.9125 167.476 57.5067C168.134 56.8111 168.811 56.1341 169.506 55.4764C168.912 54.911 168.332 54.331 167.767 53.7368C167.109 54.4323 166.432 55.1093 165.737 55.7671ZM156.559 53.0682C154.772 54.4298 154.78 57.121 156.575 58.472C159.677 60.8076 162.436 63.5666 164.771 66.6686C166.122 68.4631 168.813 68.471 170.175 66.6845L170.301 66.5195C172.66 63.4243 175.424 60.6601 178.519 58.301L178.684 58.1752C180.471 56.8136 180.463 54.1225 178.668 52.7714C175.566 50.4359 172.807 47.6768 170.472 44.5748C169.121 42.7803 166.43 42.7724 165.068 44.5589L164.942 44.7239C162.583 47.8192 159.819 50.5834 156.724 52.9425L156.559 53.0682Z" fill="#D49860"/>
</svg>
