<svg width="162" height="152" viewBox="0 0 162 152" fill="none" xmlns="http://www.w3.org/2000/svg">
<path d="M120 139.55L156.691 76.0003C158.12 73.5251 158.12 70.4755 156.691 68.0003L122.309 8.45032C120.88 5.97511 118.239 4.45032 115.381 4.45032H46.6188C43.7607 4.45032 41.1197 5.97511 39.6906 8.45032L5.3094 68.0003C3.88034 70.4755 3.88034 73.5251 5.3094 76.0003L42 139.55" stroke="#D49860" stroke-width="8"/>
<path d="M6 72H18.5" stroke="#D49860" stroke-width="8" stroke-linecap="round" stroke-linejoin="round"/>
<path d="M144 72H156.5" stroke="#D49860" stroke-width="8" stroke-linecap="round" stroke-linejoin="round"/>
<path d="M37 148L56.5 128.5H105.5" stroke="#D49860" stroke-width="8" stroke-linecap="round" stroke-linejoin="round"/>
<path d="M125.5 148L106 128.5" stroke="#D49860" stroke-width="8" stroke-linecap="round" stroke-linejoin="round"/>
<path d="M109 130L139.784 74.9624C141.158 72.5049 141.14 69.5057 139.735 67.0655L106.308 9.00828C104.88 6.52841 102.236 5 99.3748 5H62.1557C59.2778 5 56.6217 6.54575 55.2 9.04793L22.228 67.0788C20.845 69.5129 20.8349 72.4928 22.2015 74.9361L53 130" stroke="#D49860" stroke-width="8"/>
</svg>
