<svg width="197" height="104" viewBox="0 0 197 104" fill="none" xmlns="http://www.w3.org/2000/svg">
<path d="M89.334 47.4196L29.9755 13.149C21.7581 8.40464 11.4741 10.4127 8.36306 19.3768C6.00308 26.177 3.99995 35.4689 3.99995 47.4196C3.99995 59.3704 6.00308 68.6622 8.36306 75.4624C11.4741 84.4266 21.7581 86.4346 29.9755 81.6902L89.334 47.4196Z" fill="white" stroke="#D49860" stroke-width="8" stroke-linecap="round" stroke-linejoin="round"/>
<path d="M103.42 41.1188L169.378 22.4796C178.509 19.8993 187.985 24.3721 188.799 33.8258C189.416 40.9973 189.075 50.4965 186.139 62.0811C183.204 73.6656 178.979 82.1807 175.021 88.1928C169.804 96.1181 159.341 95.5383 152.541 88.9207L103.42 41.1188Z" fill="white" stroke="#D49860" stroke-width="8" stroke-linecap="round" stroke-linejoin="round"/>
<path d="M148.304 52.4932L131.611 48.2632" stroke="#D49860" stroke-width="8" stroke-linecap="round" stroke-linejoin="round"/>
<path d="M44 40L60.2516 45.4199" stroke="#D49860" stroke-width="8" stroke-linecap="round" stroke-linejoin="round"/>
<path d="M44 54.4199L60.2516 49" stroke="#D49860" stroke-width="8" stroke-linecap="round" stroke-linejoin="round"/>
<path fill-rule="evenodd" clip-rule="evenodd" d="M62 31.8225C62 27.2249 64.6494 23.047 69.0533 21.7264C74.8621 19.9845 84.0012 18.001 95.5 18.001C106.999 18.001 116.138 19.9845 121.947 21.7264C126.351 23.047 129 27.2249 129 31.8225V47.001V62.1794C129 66.7771 126.351 70.955 121.947 72.2756C116.138 74.0174 106.999 76.001 95.5 76.001C84.0012 76.001 74.8621 74.0174 69.0533 72.2756C64.6494 70.955 62 66.7771 62 62.1794V47.001V31.8225ZM71.2249 74.9744C71.763 74.8502 72.0986 74.3133 71.9744 73.7751C71.8502 73.237 71.3133 72.9014 70.7751 73.0256C68.0904 73.6452 63.3334 77.2876 62.5041 86.4095C62.4541 86.9595 62.8594 87.4459 63.4095 87.4959C63.9595 87.5459 64.4459 87.1405 64.4959 86.5905C65.2666 78.1124 69.5763 75.3548 71.2249 74.9744Z" fill="white"/>
<path d="M69.0533 21.7264L70.2023 25.5578L70.2023 25.5578L69.0533 21.7264ZM121.947 21.7264L123.096 17.8949L121.947 21.7264ZM121.947 72.2756L123.096 76.107L123.096 76.107L121.947 72.2756ZM69.0533 72.2756L67.9044 76.107L69.0533 72.2756ZM71.9744 73.7751L75.872 72.8757L75.872 72.8757L71.9744 73.7751ZM71.2249 74.9744L72.1243 78.872L72.1243 78.872L71.2249 74.9744ZM70.7751 73.0256L71.6746 76.9232L71.6746 76.9232L70.7751 73.0256ZM62.5041 86.4095L58.5205 86.0473L58.5205 86.0473L62.5041 86.4095ZM64.4959 86.5905L68.4795 86.9527L68.4795 86.9527L64.4959 86.5905ZM67.9044 17.8949C61.5441 19.8022 58 25.7504 58 31.8225H66C66 28.6994 67.7547 26.2918 70.2023 25.5578L67.9044 17.8949ZM95.5 14.001C83.5431 14.001 74.0135 16.063 67.9044 17.8949L70.2023 25.5578C75.7106 23.906 84.4593 22.001 95.5 22.001V14.001ZM123.096 17.8949C116.986 16.063 107.457 14.001 95.5 14.001V22.001C106.541 22.001 115.289 23.906 120.798 25.5578L123.096 17.8949ZM133 31.8225C133 25.7504 129.456 19.8022 123.096 17.8949L120.798 25.5578C123.245 26.2918 125 28.6994 125 31.8225H133ZM133 47.001V31.8225H125V47.001H133ZM133 62.1794V47.001H125V62.1794H133ZM123.096 76.107C129.456 74.1998 133 68.2516 133 62.1794H125C125 65.3026 123.245 67.7102 120.798 68.4441L123.096 76.107ZM95.5 80.001C107.457 80.001 116.986 77.939 123.096 76.107L120.798 68.4441C115.289 70.0959 106.541 72.001 95.5 72.001V80.001ZM67.9044 76.107C74.0135 77.939 83.5431 80.001 95.5 80.001V72.001C84.4593 72.001 75.7106 70.0959 70.2023 68.4441L67.9044 76.107ZM58 62.1794C58 68.2516 61.5441 74.1998 67.9044 76.107L70.2023 68.4441C67.7547 67.7102 66 65.3026 66 62.1794H58ZM58 47.001V62.1794H66V47.001H58ZM58 31.8225V47.001H66V31.8225H58ZM68.0768 74.6746C67.7043 73.0602 68.711 71.4494 70.3254 71.0768L72.1243 78.872C74.815 78.251 76.4929 75.5664 75.872 72.8757L68.0768 74.6746ZM71.6746 76.9232C70.0601 77.2957 68.4494 76.289 68.0768 74.6746L75.872 72.8757C75.251 70.185 72.5664 68.5071 69.8757 69.128L71.6746 76.9232ZM66.4877 86.7716C67.2004 78.9314 71.0669 77.0634 71.6746 76.9232L69.8757 69.128C65.1139 70.2269 59.4663 75.6438 58.5205 86.0473L66.4877 86.7716ZM63.7716 83.5123C65.4217 83.6623 66.6377 85.1216 66.4877 86.7716L58.5205 86.0473C58.2705 88.7974 60.2972 91.2295 63.0473 91.4795L63.7716 83.5123ZM60.5123 86.2284C60.6623 84.5784 62.1215 83.3623 63.7716 83.5123L63.0473 91.4795C65.7974 91.7295 68.2295 89.7027 68.4795 86.9527L60.5123 86.2284ZM70.3254 71.0768C66.6101 71.9342 61.4007 76.456 60.5123 86.2284L68.4795 86.9527C69.1325 79.7688 72.5425 78.7754 72.1243 78.872L70.3254 71.0768Z" fill="#D49860"/>
</svg>
