<svg width="139" height="172" viewBox="0 0 139 172" fill="none" xmlns="http://www.w3.org/2000/svg">
<path d="M25.697 4H114.303C116.356 4 118.075 5.55371 118.283 7.59584L134.126 163.596C134.365 165.953 132.515 168 130.146 168H9.85363C7.48468 168 5.63474 165.953 5.8741 163.596L21.7175 7.59584C21.9249 5.5537 23.6444 4 25.697 4Z" stroke="#D49860" stroke-width="8" stroke-linejoin="round"/>
<circle cx="71" cy="46" r="18" stroke="#D49860" stroke-width="8"/>
<path d="M4 108.2L5.47486 93.4509C6.13444 88.3449 10.2613 84.3837 15.3944 83.9373L21.4217 83.4132C20.5439 91.1532 21.0027 98.9859 22.7772 106.569L13.9979 105.867C10.3643 105.576 6.88614 106.512 4 108.349V108.2Z" fill="white" stroke="#D49860" stroke-width="8"/>
<path d="M109.644 146.068L109.704 146.307L105.934 145.836C100.333 145.136 94.6668 145.136 89.0656 145.836L85.2964 146.307L85.3561 146.068C87.3923 137.923 87.9026 129.472 86.8613 121.141L86.8062 120.7L87.8833 120.854C94.2621 121.766 100.738 121.766 107.117 120.854L108.194 120.7L108.139 121.141C107.097 129.472 107.608 137.923 109.644 146.068Z" stroke="#D49860" stroke-width="8"/>
<path d="M91.4636 64.6529C91.0555 70.2262 91.4562 75.8465 92.6405 81.3037C87.563 80.7295 82.437 80.7295 77.3595 81.3037C78.5438 75.8465 78.9445 70.2262 78.5364 64.6529C82.834 65.097 87.166 65.097 91.4636 64.6529Z" stroke="#D49860" stroke-width="8"/>
</svg>
