<svg width="222" height="222" viewBox="0 0 222 222" fill="none" xmlns="http://www.w3.org/2000/svg">
<circle cx="111" cy="111" r="74" fill="white" stroke="#D49860" stroke-width="8" stroke-linecap="round" stroke-linejoin="round"/>
<path d="M106.555 8.62731C108.417 5.01392 113.583 5.01392 115.445 8.62731L127.184 31.413C132.553 41.835 144.667 46.8524 155.833 43.2797L180.245 35.4686C184.117 34.2299 187.77 37.8831 186.531 41.7545L178.72 66.1673C175.148 77.3335 180.165 89.4466 190.587 94.816L213.373 106.555C216.986 108.417 216.986 113.583 213.373 115.445L190.587 127.184C180.165 132.553 175.148 144.667 178.72 155.833L186.531 180.245C187.77 184.117 184.117 187.77 180.245 186.531L155.833 178.72C144.667 175.148 132.553 180.165 127.184 190.587L115.445 213.373C113.583 216.986 108.417 216.986 106.555 213.373L94.816 190.587C89.4466 180.165 77.3335 175.148 66.1673 178.72L41.7545 186.531C37.8831 187.77 34.2299 184.117 35.4686 180.245L43.2797 155.833C46.8524 144.667 41.835 132.553 31.413 127.184L8.62731 115.445C5.01392 113.583 5.01392 108.417 8.62731 106.555L31.413 94.816C41.835 89.4466 46.8524 77.3335 43.2797 66.1673L35.4686 41.7545C34.2299 37.8831 37.8831 34.2299 41.7545 35.4686L66.1673 43.2797C77.3335 46.8524 89.4466 41.835 94.816 31.413L106.555 8.62731Z" stroke="#D49860" stroke-width="8" stroke-linecap="round" stroke-linejoin="round"/>
<path d="M74 88C74 88 80.5 83 86 83C91.5 83 99 88 99 88" stroke="#D49860" stroke-width="8" stroke-linecap="round" stroke-linejoin="round"/>
<path d="M123 88C123 88 129.5 83 135 83C140.5 83 148 88 148 88" stroke="#D49860" stroke-width="8" stroke-linecap="round" stroke-linejoin="round"/>
<path d="M84 134C84 134 98.5 148 111 148C123.5 148 138 134 138 134" stroke="#D49860" stroke-width="8" stroke-linecap="round" stroke-linejoin="round"/>
</svg>
