<svg width="189" height="85" viewBox="0 0 189 85" fill="none" xmlns="http://www.w3.org/2000/svg">
<path d="M99.666 42.4188L159.025 8.14811C167.242 3.40378 177.526 5.4118 180.637 14.376C182.997 21.1761 185 30.468 185 42.4188C185 54.3695 182.997 63.6614 180.637 70.4615C177.526 79.4257 167.242 81.4337 159.024 76.6894L99.666 42.4188Z" fill="white" stroke="#D49860" stroke-width="8" stroke-linecap="round" stroke-linejoin="round"/>
<path d="M89.334 42.4188L29.9755 8.14811C21.7581 3.40378 11.4741 5.4118 8.36306 14.376C6.00308 21.1761 3.99995 30.468 3.99995 42.4188C3.99995 54.3695 6.00308 63.6614 8.36306 70.4615C11.4741 79.4257 21.7581 81.4337 29.9755 76.6894L89.334 42.4188Z" fill="white" stroke="#D49860" stroke-width="8" stroke-linecap="round" stroke-linejoin="round"/>
<path d="M145.968 42.4188L128.748 42.4188" stroke="#D49860" stroke-width="8" stroke-linecap="round" stroke-linejoin="round"/>
<path d="M43.0317 42.4188L60.2516 42.4188" stroke="#D49860" stroke-width="8" stroke-linecap="round" stroke-linejoin="round"/>
<path fill-rule="evenodd" clip-rule="evenodd" d="M69.0533 16.7254C64.6494 18.046 62 22.2239 62 26.8216V42V57.1784C62 61.7761 64.6494 65.954 69.0533 67.2746C74.8621 69.0165 84.0012 71 95.5 71C106.999 71 116.138 69.0165 121.947 67.2746C126.351 65.954 129 61.7761 129 57.1784V42V26.8216C129 22.2239 126.351 18.046 121.947 16.7254C116.138 14.9835 106.999 13 95.5 13C84.0012 13 74.8621 14.9835 69.0533 16.7254Z" fill="white"/>
<path d="M69.0533 16.7254L70.2023 20.5568L70.2023 20.5568L69.0533 16.7254ZM69.0533 67.2746L67.9044 71.106L69.0533 67.2746ZM121.947 67.2746L123.096 71.106L123.096 71.106L121.947 67.2746ZM121.947 16.7254L123.096 12.894L121.947 16.7254ZM66 26.8216C66 23.6984 67.7547 21.2908 70.2023 20.5568L67.9044 12.894C61.5441 14.8012 58 20.7494 58 26.8216H66ZM66 42V26.8216H58V42H66ZM58 42V57.1784H66V42H58ZM58 57.1784C58 63.2506 61.5441 69.1988 67.9044 71.106L70.2023 63.4432C67.7547 62.7092 66 60.3016 66 57.1784H58ZM67.9044 71.106C74.0135 72.938 83.5431 75 95.5 75V67C84.4593 67 75.7106 65.095 70.2023 63.4432L67.9044 71.106ZM95.5 75C107.457 75 116.986 72.938 123.096 71.106L120.798 63.4432C115.289 65.0949 106.541 67 95.5 67V75ZM123.096 71.106C129.456 69.1988 133 63.2506 133 57.1784H125C125 60.3016 123.245 62.7092 120.798 63.4432L123.096 71.106ZM133 57.1784V42H125V57.1784H133ZM125 26.8216V42H133V26.8216H125ZM120.798 20.5568C123.245 21.2908 125 23.6984 125 26.8216H133C133 20.7494 129.456 14.8012 123.096 12.894L120.798 20.5568ZM95.5 17C106.541 17 115.289 18.9051 120.798 20.5568L123.096 12.894C116.986 11.062 107.457 9 95.5 9V17ZM70.2023 20.5568C75.7106 18.905 84.4593 17 95.5 17V9C83.5431 9 74.0135 11.062 67.9044 12.894L70.2023 20.5568Z" fill="#D49860"/>
</svg>
