<svg width="192" height="210" viewBox="0 0 192 210" fill="none" xmlns="http://www.w3.org/2000/svg">
<path d="M8.48238 124.229C8.48238 119.923 11.8743 116.391 16.1785 116.247C32.7706 115.694 72.293 114.464 95.6462 114.464C119.064 114.464 159.448 115.701 176.273 116.252C180.58 116.393 183.98 119.926 183.98 124.235V193.755C183.98 197.633 181.201 200.916 177.351 201.383C166.107 202.747 140.135 205.138 96.2312 205.138C52.3275 205.138 26.3557 202.747 15.1114 201.383C11.2615 200.916 8.48238 197.633 8.48238 193.755L8.48238 124.229Z" stroke="#D49860" stroke-width="8"/>
<path d="M96.2312 116.804V205.138" stroke="#D49860" stroke-width="8"/>
<path d="M26.0322 116.804V199.873" stroke="#D49860" stroke-width="8"/>
<path d="M167.015 116.804V199.873" stroke="#D49860" stroke-width="8"/>
<path d="M57.0367 116.804V203.968" stroke="#D49860" stroke-width="8"/>
<path d="M136.011 116.804V203.968" stroke="#D49860" stroke-width="8"/>
<path d="M72.8316 75.8545L4.77121 116.238C3.81275 116.807 4.36386 118.393 5.46812 118.242C16.8978 116.684 46.2999 113.464 94.1838 113.464C143.04 113.464 174.231 116.816 185.862 118.335C186.954 118.478 187.487 116.942 186.544 116.371L119.631 75.8545H72.8316Z" stroke="#D49860" stroke-width="8"/>
<path d="M95.6279 57C107.963 57 116.315 56.2541 120.302 55.7925C121.227 55.6854 121.463 54.513 120.665 54.0338L96.1498 39.3134C95.8292 39.1209 95.428 39.1234 95.1098 39.3198L71.2283 54.0604C70.4471 54.5426 70.6809 55.6893 71.5922 55.8003C75.3866 56.2625 83.3628 57 95.6279 57Z" stroke="#D49860" stroke-width="8"/>
<path d="M96.0089 56.7467C105.435 56.5814 112.089 55.7739 116.216 55.0658V74.1945H76.2466V55.3103C80.3368 56.1163 86.7909 56.9084 96.0089 56.7467Z" stroke="#D49860" stroke-width="8"/>
<path d="M87.4563 75.8545L42.4119 115.634" stroke="#D49860" stroke-width="8"/>
<path d="M105.006 75.8545L150.051 115.634" stroke="#D49860" stroke-width="8"/>
<path d="M95.3537 75.8545L76.049 115.634" stroke="#D49860" stroke-width="8"/>
<path d="M97.6937 75.8545L116.998 115.634" stroke="#D49860" stroke-width="8"/>
<path d="M95 39L101.5 18M101.5 18L105.697 5.40984C106.106 4.18183 107.556 3.66025 108.654 4.3463L121.082 12.1138C121.903 12.6268 122.238 13.6539 121.879 14.5525L121.003 16.7428C120.699 17.5021 119.964 18 119.146 18H101.5Z" stroke="#D49860" stroke-width="8" stroke-linejoin="round"/>
</svg>
